<?xml version="1.0" encoding="UTF-8"?>
<svg id="_圖層_1" data-name="圖層_1" xmlns="http://www.w3.org/2000/svg" xmlns:xlink="http://www.w3.org/1999/xlink" version="1.1" viewBox="0 0 640 480">
  <!-- Generator: Adobe Illustrator 29.6.1, SVG Export Plug-In . SVG Version: 2.1.1 Build 9)  -->
  <defs>
    <style>
      .st0, .st1 {
        fill: none;
      }

      .st2 {
        fill: #fc0;
      }

      .st3 {
        fill: #fff;
      }

      .st4 {
        fill: #006;
      }

      .st1 {
        stroke: #c00;
        stroke-miterlimit: 171.43;
        stroke-width: 34.29px;
      }

      .st5 {
        clip-path: url(#clippath);
      }
    </style>
    <clipPath id="clippath">
      <rect class="st0" x="0" y="0" width="640" height="480"/>
    </clipPath>
  </defs>
  <g class="st5">
    <g>
      <g>
        <path class="st3" d="M0,0h960v480H0V0Z"/>
        <path class="st1" d="M34.29,17.14h925.71M960,85.71H34.29M34.29,154.29h925.71M960,222.86H34.29"/>
        <path class="st4" d="M0,0h480v291.43H0V0Z"/>
        <path class="st1" d="M0,291.43h960M960,360H0M0,428.57h960"/>
      </g>
      <path class="st2" d="M300,51.43l7.64,52.29,29.57-43.79-15.86,50.43,45.64-26.64-36.14,38.57,52.71-4.21-49.29,19.07,49.29,19.07-52.71-4.21,36.14,38.57-45.64-26.64,15.86,50.43-29.57-43.79-7.64,52.29-7.64-52.29-29.57,43.79,15.86-50.43-45.64,26.64,36.14-38.57-52.71,4.21,49.29-19.07-49.29-19.07,52.71,4.21-36.14-38.57,45.64,26.64-15.86-50.43,29.57,43.79,7.64-52.29ZM257.14,53.57c-46.16-20.48-100.17.34-120.65,46.49-20.48,46.16.34,100.17,46.49,120.65,23.61,10.48,50.55,10.48,74.16,0-46.16,33.12-110.42,22.55-143.53-23.61-33.12-46.16-22.55-110.42,23.61-143.53,35.84-25.71,84.08-25.71,119.92,0Z"/>
    </g>
  </g>
</svg>