<svg width="17" height="16" viewBox="0 0 17 16" fill="none" xmlns="http://www.w3.org/2000/svg">
<path fill-rule="evenodd" clip-rule="evenodd" d="M5.14592 1.64592C5.19236 1.59935 5.24754 1.56241 5.30828 1.5372C5.36903 1.512 5.43415 1.49902 5.49992 1.49902C5.56568 1.49902 5.63081 1.512 5.69155 1.5372C5.7523 1.56241 5.80747 1.59935 5.85392 1.64592L11.8539 7.64592C11.9005 7.69236 11.9374 7.74754 11.9626 7.80828C11.9878 7.86903 12.0008 7.93415 12.0008 7.99992C12.0008 8.06568 11.9878 8.1308 11.9626 8.19155C11.9374 8.2523 11.9005 8.30747 11.8539 8.35392L5.85392 14.3539C5.76003 14.4478 5.63269 14.5005 5.49992 14.5005C5.36714 14.5005 5.2398 14.4478 5.14592 14.3539C5.05203 14.26 4.99929 14.1327 4.99929 13.9999C4.99929 13.8671 5.05203 13.7398 5.14592 13.6459L10.7929 7.99992L5.14592 2.35392C5.09935 2.30747 5.06241 2.2523 5.0372 2.19155C5.012 2.13081 4.99902 2.06568 4.99902 1.99992C4.99902 1.93415 5.012 1.86903 5.0372 1.80828C5.06241 1.74754 5.09935 1.69236 5.14592 1.64592Z" fill="#ADB5BD"/>
</svg>
