<svg width="45" height="45" viewBox="0 0 45 45" fill="none" xmlns="http://www.w3.org/2000/svg">
<g clip-path="url(#clip0_1008_6578)">
<path d="M36.8255 36.8552L37.0991 37.1286L41.0756 41.1024L41.0819 41.1087L41.088 41.1152C41.231 41.2687 41.4035 41.3918 41.5952 41.4772C41.7869 41.5626 41.9938 41.6085 42.2036 41.6122C42.4134 41.6159 42.6218 41.5774 42.8163 41.4988C43.0109 41.4202 43.1876 41.3032 43.336 41.1548C43.4844 41.0065 43.6013 40.8297 43.6799 40.6352C43.7585 40.4406 43.7971 40.2322 43.7934 40.0224C43.7897 39.8126 43.7438 39.6057 43.6584 39.4141C43.573 39.2224 43.4498 39.0499 43.2963 38.9068L43.2898 38.9008L43.2835 38.8945L39.3098 34.918L39.0361 34.6441L39.2328 34.3105C40.1009 32.8385 40.4582 31.1207 40.2489 29.4246C40.0397 27.7284 39.2756 26.149 38.0757 24.9321C36.8757 23.7152 35.3072 22.929 33.6142 22.6959C31.9211 22.4629 30.1985 22.796 28.7144 23.6434C27.2303 24.4908 26.0679 25.805 25.4081 27.3815C24.7483 28.958 24.6281 30.7084 25.0662 32.3603C25.5043 34.0122 26.4762 35.473 27.8306 36.5153C29.1849 37.5576 30.8457 38.123 32.5547 38.1235L36.8255 36.8552ZM36.8255 36.8552L36.4921 37.0513M36.8255 36.8552L36.4921 37.0513M36.4921 37.0513C35.337 37.731 33.9915 38.1235 32.5548 38.1235L36.4921 37.0513ZM32.3922 14.0199L32.3926 14.0197C33.553 13.4851 34.2388 12.952 34.6342 12.4446C35.0431 11.9197 35.1172 11.4532 35.1172 11.1235C35.1172 10.7939 35.0431 10.3273 34.6342 9.80251C34.2388 9.29509 33.553 8.76197 32.3926 8.22741C30.0642 7.15474 26.5113 6.49854 22.2422 6.49854C17.9728 6.49854 14.4257 7.15482 12.0922 8.22721L12.0919 8.22731C10.9302 8.76185 10.2442 9.29503 9.84902 9.80271C9.44021 10.328 9.36719 10.7947 9.36719 11.1235C9.36719 11.4532 9.4413 11.9197 9.85021 12.4446C10.2456 12.952 10.9314 13.4851 12.0917 14.0197C14.4201 15.0923 17.9731 15.7485 22.2422 15.7485C26.5115 15.7485 30.0587 15.0922 32.3922 14.0199ZM35.1172 16.9618V16.1296L34.3824 16.5203C31.4595 18.0748 27.1305 18.8735 22.2422 18.8735C17.3539 18.8735 13.0249 18.0748 10.102 16.5203L9.36719 16.1296V16.9618V22.1235C9.36719 22.4532 9.4413 22.9197 9.85021 23.4446C10.2456 23.952 10.9314 24.4851 12.0917 25.0197C14.4072 26.0864 16.1924 26.5035 20.4456 26.5058C21.0327 26.6007 21.4594 27.2516 21.3106 27.9448C21.2757 28.1075 21.2442 28.2715 21.2163 28.4367C21.0771 29.2589 20.4301 29.8418 19.7291 29.7999C15.8739 29.5695 12.5076 28.7989 10.1018 27.5203L9.36719 27.1298V27.9618V33.1235C9.36719 33.4531 9.44129 33.9198 9.85033 34.4444C10.2457 34.9514 10.9314 35.4837 12.0912 36.0167C14.4255 37.0951 17.9733 37.7485 22.2422 37.7485C22.7375 37.7485 23.222 37.74 23.6957 37.7228C23.6973 37.7228 23.7007 37.723 23.7057 37.7253C23.7109 37.7277 23.7162 37.7316 23.7206 37.7369C24.1149 38.2103 24.2482 39.0156 24.0753 39.7337C23.9003 40.46 23.4886 40.8586 23.0058 40.867C22.7528 40.8713 22.4982 40.8735 22.2422 40.8735C17.7251 40.8735 13.6798 40.1905 10.7838 38.8569C7.88873 37.5237 6.24219 35.5983 6.24219 33.1235V11.1235C6.24219 8.64876 7.88873 6.72339 10.7838 5.39019C13.6798 4.05655 17.7251 3.37354 22.2422 3.37354C26.7593 3.37354 30.8046 4.05655 33.7006 5.39019C36.5956 6.72339 38.2422 8.64876 38.2422 11.1235V18.1486C38.2422 18.6023 37.9836 18.9966 37.56 19.2503C37.1321 19.5067 36.5816 19.5872 36.0976 19.4304C35.5123 19.2408 35.1172 18.7392 35.1172 18.1972V16.9618ZM32.5547 34.9985C33.1621 34.9985 33.7635 34.8789 34.3246 34.6465C34.8857 34.4141 35.3956 34.0734 35.8251 33.6439C36.2545 33.2144 36.5952 32.7046 36.8276 32.1434C37.0601 31.5823 37.1797 30.9809 37.1797 30.3735C37.1797 29.7662 37.0601 29.1648 36.8276 28.6036C36.5952 28.0425 36.2545 27.5326 35.8251 27.1032C35.3956 26.6737 34.8857 26.333 34.3246 26.1006C33.7635 25.8682 33.1621 25.7485 32.5547 25.7485C31.3281 25.7485 30.1517 26.2358 29.2843 27.1032C28.417 27.9705 27.9297 29.1469 27.9297 30.3735C27.9297 31.6002 28.417 32.7765 29.2843 33.6439C30.1517 34.5113 31.3281 34.9985 32.5547 34.9985Z" fill="black" stroke="white"/>
</g>
<defs>
<clipPath id="clip0_1008_6578">
<rect width="44" height="44" fill="white" transform="translate(0.242188 0.123535)"/>
</clipPath>
</defs>
</svg>
