<svg width="30" height="31" viewBox="0 0 30 31" fill="none" xmlns="http://www.w3.org/2000/svg">
<path fill-rule="evenodd" clip-rule="evenodd" d="M2.1875 4.875C2.1875 4.35723 2.60723 3.9375 3.125 3.9375H10C13.2792 3.9375 15.9375 6.5958 15.9375 9.875V26.75C15.9375 27.2678 15.5178 27.6875 15 27.6875C14.4822 27.6875 14.0625 27.2678 14.0625 26.75C14.0625 25.1967 12.8033 23.9375 11.25 23.9375H3.125C2.60723 23.9375 2.1875 23.5178 2.1875 23V4.875ZM14.0625 22.9997V9.875C14.0625 7.63133 12.2437 5.8125 10 5.8125H4.0625V22.0625H11.25C12.3053 22.0625 13.2791 22.4112 14.0625 22.9997Z" fill="#1C1B1E"/>
<path fill-rule="evenodd" clip-rule="evenodd" d="M14.0625 9.875C14.0625 6.5958 16.7208 3.9375 20 3.9375H26.875C27.3928 3.9375 27.8125 4.35723 27.8125 4.875V23C27.8125 23.5178 27.3928 23.9375 26.875 23.9375H18.75C17.1967 23.9375 15.9375 25.1967 15.9375 26.75C15.9375 27.2678 15.5178 27.6875 15 27.6875C14.4822 27.6875 14.0625 27.2678 14.0625 26.75V9.875ZM15.9375 22.9997C16.7209 22.4112 17.6947 22.0625 18.75 22.0625H25.9375V5.8125H20C17.7563 5.8125 15.9375 7.63133 15.9375 9.875V22.9997Z" fill="#1C1B1E"/>
</svg>
